<svg xmlns="http://www.w3.org/2000/svg" viewBox="0 0 748.9 157.78"><defs><style>.cls-1{fill:#e8e100;}.cls-1,.cls-2,.cls-3,.cls-4{stroke:#fff;stroke-miterlimit:10;}.cls-1,.cls-2,.cls-3{stroke-width:3px;}.cls-2{fill:#312783;}.cls-3{fill:#005678;}.cls-4{font-size:75px;fill:#fff;stroke-width:0.5px;font-family:iKampuchea008_NeakPoan;}</style></defs><g id="Layer_2" data-name="Layer 2"><g id="Layer_1-2" data-name="Layer 1"><path class="cls-1" d="M101,94.83l31.83,19.63-65,37.27L2.93,114.23V87l64.95,37.23,37.52-21.67-6.63-4.1-16.21-10a18.76,18.76,0,0,0,2.23-3.57Z"/><path class="cls-1" d="M132.83,39.23V66.86l-65-37.59L30.08,51.09l6.75,4.17,16.22,10a18.57,18.57,0,0,0-2.17,3.54l-16.21-10L2.93,39.14,67.88,1.73Z"/><path class="cls-1" d="M105.62,57V76.73a37.56,37.56,0,0,1-3,14.7,38.5,38.5,0,0,1-3.88,7A37.75,37.75,0,0,1,33.1,62c.48-1.12,1-2.21,1.57-3.26A37.61,37.61,0,0,1,41.19,50,37.66,37.66,0,0,1,67.88,39V58l-.82,0a18.75,18.75,0,0,0-14,7.27,18.57,18.57,0,0,0-2.17,3.54,18.75,18.75,0,1,0,35.76,7.93L86.71,46Z"/><path class="cls-2" d="M101,94.83l31.83,19.63-65,37.27L2.93,114.23V87l64.95,37.23,37.52-21.67-6.63-4.1-16.21-10a18.76,18.76,0,0,0,2.23-3.57Z"/><path class="cls-2" d="M132.83,39.23V66.86l-65-37.59L30.08,51.09l6.75,4.17,16.22,10a18.57,18.57,0,0,0-2.17,3.54l-16.21-10L2.93,39.14,67.88,1.73Z"/><path class="cls-3" d="M105.62,57V76.73a37.56,37.56,0,0,1-3,14.7,38.5,38.5,0,0,1-3.88,7A37.75,37.75,0,0,1,33.1,62c.48-1.12,1-2.21,1.57-3.26A37.61,37.61,0,0,1,41.19,50,37.66,37.66,0,0,1,67.88,39V58l-.82,0a18.75,18.75,0,0,0-14,7.27,18.63,18.63,0,0,0-3.93,11.47,18.76,18.76,0,0,0,37.52,0L86.71,46Z"/><text class="cls-4" transform="translate(168.05 105.82)">CAMBO Software</text></g></g></svg>