<svg xmlns="http://www.w3.org/2000/svg" viewBox="0 0 736.99 156.82"><defs><style>.cls-1{fill:#e8e100;}.cls-2,.cls-4{fill:#312783;}.cls-3{fill:#005678;}.cls-4{font-size:75px;font-family:iKampuchea008_NeakPoan;}</style></defs><g id="Layer_2" data-name="Layer 2"><g id="Layer_1-2" data-name="Layer 1"><path class="cls-1" d="M98.08,93.1l31.82,19.63L65,150,0,112.5V85.23l65,37.23,37.52-21.67-6.63-4.1-16.21-10a18.91,18.91,0,0,0,2.24-3.56Z"/><path class="cls-1" d="M129.9,37.5V65.12L65,27.54,27.16,49.36l6.75,4.16,16.21,10A19.5,19.5,0,0,0,48,67.07l-16.21-10L0,37.41,65,0Z"/><path class="cls-1" d="M102.69,55.23V75a37.51,37.51,0,0,1-3,14.69,36.89,36.89,0,0,1-1.64,3.41,37.75,37.75,0,0,1-67.9-32.79c.47-1.12,1-2.21,1.56-3.26a37.52,37.52,0,0,1,2.17-3.53,38.39,38.39,0,0,1,4.35-5.21A37.7,37.7,0,0,1,65,37.26v19l-.81,0a18.76,18.76,0,0,0-14,7.26A19.5,19.5,0,0,0,48,67.07,18.76,18.76,0,1,0,83.71,75l.07-30.71Z"/><path class="cls-2" d="M98.08,93.1l31.82,19.63L65,150,0,112.5V85.23l65,37.23,37.52-21.67-6.63-4.1-16.21-10a18.91,18.91,0,0,0,2.24-3.56Z"/><path class="cls-2" d="M129.9,37.5V65.12L65,27.54,27.16,49.36l6.75,4.16,16.21,10A19.5,19.5,0,0,0,48,67.07l-16.21-10L0,37.41,65,0Z"/><path class="cls-3" d="M102.69,55.23V75a37.51,37.51,0,0,1-3,14.69,36.89,36.89,0,0,1-1.64,3.41,37.75,37.75,0,0,1-67.9-32.79c.47-1.12,1-2.21,1.56-3.26a37.52,37.52,0,0,1,2.17-3.53,38.39,38.39,0,0,1,4.35-5.21A37.7,37.7,0,0,1,65,37.26v19l-.81,0a18.76,18.76,0,0,0-14,7.26A19.5,19.5,0,0,0,48,67.07,18.75,18.75,0,0,0,79.63,86.66a18.91,18.91,0,0,0,2.24-3.56A18.62,18.62,0,0,0,83.71,75l.07-30.71Z"/><text class="cls-4" transform="translate(156.4 105.11)">CAMBO Software</text></g></g></svg>