<svg xmlns="http://www.w3.org/2000/svg" viewBox="0 0 239.81 276.91"><defs><style>.cls-1{fill:#312783;}.cls-2{fill:#005678;}</style></defs><g id="Layer_2" data-name="Layer 2"><g id="Layer_1-2" data-name="Layer 1"><path class="cls-1" d="M181.06,171.87l58.75,36.24L119.9,276.91,0,207.68V157.34l119.9,68.73,69.27-40-12.24-7.57L147,160a34.68,34.68,0,0,0,4.13-6.58Z"/><path class="cls-1" d="M239.81,69.23v51L119.9,50.84,50.13,91.12,62.6,98.81l29.93,18.46a34.72,34.72,0,0,0-4,6.55L58.6,105.31,0,69.06,119.9,0Z"/><path class="cls-2" d="M189.58,102v36.5a69.4,69.4,0,0,1-5.48,27.13c-.92,2.16-1.93,4.25-3,6.29a68.58,68.58,0,0,1-4.13,6.63,69.67,69.67,0,0,1-126.7-40.05,69.21,69.21,0,0,1,5.48-27.12c.87-2.06,1.84-4.07,2.89-6a70.79,70.79,0,0,1,4-6.5,69.58,69.58,0,0,1,57.3-30v35.05q-.75,0-1.5,0a34.62,34.62,0,1,0,36.13,34.59l.14-56.69Z"/></g></g></svg>